<svg id="Capa_1" enable-background="new 0 0 512 512" height="512" viewBox="0 0 512 512" width="512" xmlns="http://www.w3.org/2000/svg"><g><path d="m380.719 420.281c.004.004.009.007.013.011 15.629 15.626 40.931 15.62 56.546-.009 15.638-15.625 15.644-40.935.003-56.565-15.624-15.634-40.938-15.637-56.559-.003-15.628 15.615-15.65 40.928-.009 56.559.002.003.004.005.006.007zm42.417-14.139c-4.991 4.994-12.22 7.049-19.3 5.165l24.472-24.472c1.831 6.885-.033 14.172-5.172 19.307zm-28.272-28.284c4.991-4.995 12.22-7.049 19.301-5.165l-24.472 24.472c-1.832-6.885.032-14.172 5.171-19.307z"/><circle cx="256" cy="502" r="10"/><path d="m492 453.72v-19.4c0-100.933-20.208-207.882-55.655-295.818 32.446-6.811 55.655-35.392 55.655-68.502 0-38.615-31.402-70-70-70h-309c-38.598 0-70 31.402-70 70v60c0 5.523 4.477 10 10 10h30v30c0 5.523 4.477 10 10 10h30v53.006c-22.795 4.646-40 24.847-40 48.994v10h-53c-16.542 0-30 13.458-30 30 0 13.143 8.499 24.331 20.287 28.377 2.845 42.947 27.433 79.929 62.449 101.623h-32.736c-27.57 0-50 22.43-50 50 0 5.523 4.477 10 10 10h201c5.523 0 10-4.477 10-10s-4.477-10-10-10h-189.287c4.127-11.641 15.249-20 28.287-20h166.53c71.543 0 129.155-57.704 129.47-129.47v-112.555c-.094-36.899-18.099-69.744-46.715-89.975h116.067c36.039 86.717 56.648 193.547 56.648 294.32v17.68h-93c-5.523 0-10 4.477-10 10s4.477 10 10 10h103c5.514 0 10 4.486 10 10v10h-191c-5.523 0-10 4.477-10 10s4.477 10 10 10h201c5.523 0 10-4.477 10-10v-20c0-13.036-8.361-24.152-20-28.28zm-389-293.72v-20h100v20zm60 92h10c16.542 0 30 13.458 30 30v10h-40zm-20-20v-52h20v52zm-40 50c0-16.542 13.458-30 30-30h10v40h-40zm-83 40c0-5.514 4.486-10 10-10h246c5.514 0 10 4.486 10 10s-4.486 10-10 10h-246c-5.514 0-10-4.486-10-10zm133 130c-57.795 0-107.119-44.849-112.504-100.01h225.009c-5.386 55.161-54.71 100.01-112.505 100.01zm173-222v112.486c-.255 57.986-45.548 105.582-102.36 109.275 35.111-21.913 59.256-58.855 62.073-101.384 11.788-4.046 20.287-15.234 20.287-28.377 0-16.542-13.458-30-30-30h-53v-10c0-24.146-17.205-44.348-40-48.994v-53.006h30c5.523 0 10-4.477 10-10v-30h13c49.5 0 89.874 40.385 90 90zm96-110c-.029 0-359 0-359 0v-50c0-27.57 22.43-50 50-50h309c15.996 0 30.723 7.655 40.002 20h-40.002c-5.523 0-10 4.477-10 10s4.477 10 10 10h48.995c.663 3.272 1.005 6.615 1.005 10s-.343 6.728-1.005 10h-48.995c-5.523 0-10 4.477-10 10s4.477 10 10 9.99h40.002c-9.279 12.355-24.006 20.01-40.002 20.01z"/></g></svg>